:SAMPLES-PER-SECOND 30
:FULLY-SPECIFIED
:DEGREES
153
root  -27.1058 41.4717 -34.9254 -179.813 1.79359 178.908
RightUpLeg  1.54132 -6.80163 -3.44476
RightLeg  2.89107 1.01343 3.13861
RightFoot  -1.36932 0.326276 -3.84237
RightToes  1.74622e-010 0 -3.6325e-017
Spine  -3.87406 -0.253882 2.28213
Spine1  5.5399 -0.0243822 -1.32086
HEad  -5.91352 2.69396 -0.986958
LeftShoulder1  0.644864 -0.199361 -9.9528
LeftArm  -15.4433 10.28 0.111498
LeftForeArm  17.3594 -16.9556 -3.43722
LeftHand  -0.244104 0.0205437 5.32207
RightShoulder  0.672015 0.417252 9.84586
RightArm  -16.7245 -6.42397 1.8616
RightForeArm  -2.52922 3.97922 4.2334
RightHand  -1.27196 3.98902 -15.9173
LeftUpLeg  2.20207 4.61267 3.90138
LeftLeg  0.0603397 5.0593 -3.19549
LeftFoot  -0.870064 0.03238 -0.279198
LeftToes  -2.63786e-011 -1.12672e-010 -2.07835e-011
154
root  -27.1901 41.4758 -35.101 -179.557 2.25538 178.885
RightUpLeg  1.47552 -6.75441 -3.55982
RightLeg  2.89688 1.43291 3.02758
RightFoot  -1.51224 0.303489 -3.64516
RightToes  1.74622e-010 0 -3.6325e-017
Spine  -4.2146 -0.189292 2.20919
Spine1  5.46457 0.031744 -1.32037
HEad  -5.68841 3.05313 -0.963933
LeftShoulder1  0.305652 1.34596 -6.27162
LeftArm  -15.4887 9.21515 0.672743
LeftForeArm  17.6667 -15.8263 -3.42763
LeftHand  -0.244104 0.0205437 5.32207
RightShoulder  0.366823 -0.83207 6.05441
RightArm  -17.5852 -4.95889 0.949312
RightForeArm  -1.60922 3.84368 4.05412
RightHand  -1.19318 3.85295 -15.1625
LeftUpLeg  2.33155 4.50918 3.68767
LeftLeg  -0.081574 5.6905 -3.18628
LeftFoot  -1.09742 0.0248839 -0.162705
LeftToes  -2.63786e-011 -1.12672e-010 -2.07835e-011
155
root  -27.2653 41.4747 -35.246 -179.33 2.61199 178.849
RightUpLeg  1.4123 -6.75954 -3.69442
RightLeg  2.90131 1.7813 2.95224
RightFoot  -1.67639 0.283218 -3.48126
RightToes  1.74622e-010 0 -3.6325e-017
Spine  -4.28773 -0.176882 2.15128
Spine1  5.10864 0.0430385 -1.33309
HEad  -5.46607 3.39206 -0.994155
LeftShoulder1  0.112627 2.53221 -3.25676
LeftArm  -15.5587 8.49174 0.849571
LeftForeArm  17.973 -14.5003 -3.42347
LeftHand  -0.244104 0.0205437 5.32207
RightShoulder  0.189652 -1.79597 3.10146
RightArm  -18.2544 -3.80965 0.224996
RightForeArm  -2.22149 4.11487 4.06702
RightHand  -1.06971 3.21176 -14.6157
LeftUpLeg  2.39039 4.35174 3.44942
LeftLeg  -0.170781 6.25092 -3.1312
LeftFoot  -1.25778 0.018742 -0.0672563
LeftToes  -2.63786e-011 -1.12672e-010 -2.07835e-011
156
root  -27.3331 41.4686 -35.3623 -179.169 2.87636 178.84
RightUpLeg  1.39539 -6.75823 -3.79969
RightLeg  2.88515 2.04577 2.89864
RightFoot  -1.83217 0.26788 -3.36712
RightToes  1.74622e-010 0 -3.6325e-017
Spine  -4.08758 -0.167753 2.09623
Spine1  4.53236 0.0338777 -1.27411
HEad  -5.2851 3.6223 -1.12729
LeftShoulder1  0.0259536 3.25733 -1.17617
LeftArm  -15.5069 8.16889 0.890691
LeftForeArm  18.2587 -13.3642 -3.43384
LeftHand  -0.244104 0.0205437 5.32207
RightShoulder  0.0896028 -2.53309 0.955844
RightArm  -18.7235 -2.83379 -0.418841
RightForeArm  -3.75653 4.45994 4.18852
RightHand  -1.03471 2.79403 -14.8322
LeftUpLeg  2.44826 4.2288 3.26934
LeftLeg  -0.206976 6.6528 -3.07105
LeftFoot  -1.44091 0.0178753 -0.0537871
LeftToes  -2.63786e-011 -1.12672e-010 -2.07835e-011
157
root  -27.3953 41.4605 -35.455 -179.026 3.09669 178.834
RightUpLeg  1.36182 -6.73861 -3.88582
RightLeg  2.87793 2.25388 2.8434
RightFoot  -1.98266 0.255576 -3.28382
RightToes  1.74622e-010 0 -3.6325e-017
Spine  -3.90074 -0.118078 2.13134
Spine1  4.11107 0.075231 -1.2808
HEad  -5.22902 3.73501 -1.26536
LeftShoulder1  -0.00983652 3.65233 -0.0831621
LeftArm  -15.4484 8.00475 0.770638
LeftForeArm  18.4596 -12.3238 -3.44071
LeftHand  -0.244104 0.0205437 5.32207
RightShoulder  0.0271451 -3.16212 -0.490264
RightArm  -19.0901 -1.95721 -0.800981
RightForeArm  -3.97823 4.52965 4.20177
RightHand  -1.07394 2.95017 -15.1083
LeftUpLeg  2.47168 4.17926 3.14432
LeftLeg  -0.188911 6.91829 -3.07132
LeftFoot  -1.70149 0.0176731 -0.0506443
LeftToes  -2.63786e-011 -1.12672e-010 -2.07835e-011
158
root  -27.4513 41.4519 -35.5258 -178.881 3.29368 178.808
RightUpLeg  1.26976 -6.76252 -3.99124
RightLeg  2.92727 2.46497 2.81197
RightFoot  -2.14433 0.244961 -3.22363
RightToes  1.74622e-010 0 -3.6325e-017
Spine  -3.84948 -0.0560968 2.30222
Spine1  4.01383 0.17324 -1.49274
HEad  -5.34828 3.80268 -1.25257
LeftShoulder1  -0.0252261 3.84566 0.233119
LeftArm  -15.5632 7.84056 0.400105
LeftForeArm  18.1405 -10.9824 -3.40167
LeftHand  -0.244104 0.0205437 5.32207
RightShoulder  -0.00673932 -3.59302 -1.2825
RightArm  -19.2703 -1.28508 -0.795714
RightForeArm  -2.73096 4.17888 4.09565
RightHand  -1.0783 3.21327 -14.7212
LeftUpLeg  2.45596 4.1954 3.0538
LeftLeg  -0.177285 7.08381 -3.16448
LeftFoot  -1.94003 0.0131192 0.0201247
LeftToes  -2.63786e-011 -1.12672e-010 -2.07835e-011
159
root  -27.4993 41.4455 -35.5761 -178.766 3.46516 178.787
RightUpLeg  1.17091 -6.82546 -4.09294
RightLeg  3.00137 2.68076 2.81054
RightFoot  -2.27533 0.236068 -3.16957
RightToes  1.74622e-010 0 -3.6325e-017
Spine  -3.72573 -0.0295212 2.52902
Spine1  3.96358 0.266402 -1.83319
HEad  -5.54041 3.87004 -1.07207
LeftShoulder1  -0.0252283 3.83876 -0.0341743
LeftArm  -15.6886 7.78673 -0.110335
LeftForeArm  16.8948 -9.34596 -3.30671
LeftHand  -0.244104 0.0205437 5.32207
RightShoulder  -0.00831017 -3.62037 -1.36114
RightArm  -19.0371 -0.892466 -0.65098
RightForeArm  -1.65999 3.541 4.05152
RightHand  -1.00843 3.13367 -13.9121
LeftUpLeg  2.4624 4.25661 3.00596
LeftLeg  -0.223636 7.18739 -3.30428
LeftFoot  -2.07913 0.00639343 0.124648
LeftToes  -2.63786e-011 -1.12672e-010 -2.07835e-011
160
root  -27.5375 41.4415 -35.6098 -178.711 3.5809 178.787
RightUpLeg  1.12457 -6.84527 -4.14655
RightLeg  3.05128 2.81394 2.78375
RightFoot  -2.35761 0.226399 -3.08316
RightToes  1.74622e-010 0 -3.6325e-017
Spine  -3.35488 -0.0441213 2.6677
Spine1  3.68445 0.304585 -2.09482
HEad  -5.66436 3.92588 -0.851882
LeftShoulder1  -0.00611089 3.60898 -0.790452
LeftArm  -15.4931 7.96549 -0.552346
LeftForeArm  15.0511 -7.83598 -3.23919
LeftHand  -0.244104 0.0205437 5.32207
RightShoulder  0.0170808 -3.28551 -0.818422
RightArm  -18.4191 -0.708672 -0.601751
RightForeArm  -1.21116 2.82583 4.12509
RightHand  -0.909311 2.76048 -13.1288
LeftUpLeg  2.49772 4.30556 2.97599
LeftLeg  -0.261066 7.27137 -3.39092
LeftFoot  -2.18383 0.00263825 0.183006
LeftToes  -2.63786e-011 -1.12672e-010 -2.07835e-011
161
root  -27.5642 41.4385 -35.6342 -178.681 3.59863 178.779
RightUpLeg  1.12017 -6.80397 -4.16809
RightLeg  3.06411 2.81021 2.71144
RightFoot  -2.43552 0.214658 -2.96412
RightToes  1.74622e-010 0 -3.6325e-017
Spine  -2.9171 -0.0733268 2.63797
Spine1  3.33163 0.292883 -2.17334
HEad  -5.76521 3.90952 -0.731779
LeftShoulder1  0.0334671 3.20817 -1.83919
LeftArm  -14.924 8.27368 -0.866951
LeftForeArm  13.6063 -6.6338 -3.30071
LeftHand  -0.244104 0.0205437 5.32207
RightShoulder  0.0525833 -2.87687 -0.0424196
RightArm  -17.7114 -0.665134 -0.466273
RightForeArm  -0.497786 2.11476 4.19465
RightHand  -0.824612 2.41417 -12.439
LeftUpLeg  2.50255 4.27575 2.90755
LeftLeg  -0.24385 7.34547 -3.37286
LeftFoot  -2.29236 0.00294156 0.178292
LeftToes  -2.63786e-011 -1.12672e-010 -2.07835e-011
162
root  -27.5785 41.4351 -35.6589 -178.605 3.51204 178.767
RightUpLeg  1.11103 -6.77521 -4.18742
RightLeg  3.02825 2.7228 2.67082
RightFoot  -2.52319 0.204644 -2.86795
RightToes  1.74622e-010 0 -3.6325e-017
Spine  -2.71275 -0.100104 2.49271
Spine1  3.21735 0.261313 -2.13043
HEad  -5.97303 3.74209 -0.701641
LeftShoulder1  0.085674 2.75591 -2.84794
LeftArm  -14.0615 8.47952 -1.14872
LeftForeArm  13.1341 -5.49408 -3.46682
LeftHand  -0.244104 0.0205437 5.32207
RightShoulder  0.0836872 -2.5735 0.653972
RightArm  -17.0562 -0.754373 -0.0702718
RightForeArm  0.736551 1.41429 4.20749
RightHand  -0.769286 2.27949 -11.8173
LeftUpLeg  2.42486 4.19101 2.82326
LeftLeg  -0.201974 7.36313 -3.29491
LeftFoot  -2.36835 0.0045925 0.152636
LeftToes  -2.63786e-011 -1.12672e-010 -2.07835e-011
163
root  -27.5811 41.4326 -35.6899 -178.461 3.3558 178.796
RightUpLeg  1.09713 -6.79576 -4.18628
RightLeg  2.90893 2.60956 2.72324
RightFoot  -2.57039 0.199319 -2.82812
RightToes  1.74622e-010 0 -3.6325e-017
Spine  -2.74082 -0.12653 2.33309
Spine1  3.30689 0.225136 -2.06744
HEad  -6.26448 3.45821 -0.651737
LeftShoulder1  0.135046 2.37423 -3.59662
LeftArm  -13.1271 8.46899 -1.43409
LeftForeArm  13.3883 -4.25751 -3.66843
LeftHand  -0.244104 0.0205437 5.32207
RightShoulder  0.112143 -2.33651 1.34172
RightArm  -16.3876 -0.924786 0.283677
RightForeArm  1.95328 0.818532 4.23504
RightHand  -0.739459 2.28457 -11.3613
LeftUpLeg  2.2752 4.14748 2.81077
LeftLeg  -0.153616 7.27044 -3.23086
LeftFoot  -2.42268 0.00547041 0.138992
LeftToes  -2.63786e-011 -1.12672e-010 -2.07835e-011
164
root  -27.5744 41.4306 -35.7248 -178.305 3.16716 178.864
RightUpLeg  1.10669 -6.8185 -4.14406
RightLeg  2.74219 2.45449 2.81354
RightFoot  -2.57517 0.196619 -2.81317
RightToes  1.74622e-010 0 -3.6325e-017
Spine  -2.73593 -0.153428 2.20027
Spine1  3.28908 0.19054 -2.02589
HEad  -6.50072 3.2659 -0.570412
LeftShoulder1  0.173243 2.1018 -4.11303
LeftArm  -12.4109 8.35621 -1.62982
LeftForeArm  13.6649 -3.2193 -3.84125
LeftHand  -0.244104 0.0205437 5.32207
RightShoulder  0.140926 -2.13405 2.12073
RightArm  -15.8207 -1.10303 0.281129
RightForeArm  2.94108 0.466997 4.27381
RightHand  -0.727186 2.30699 -11.1457
LeftUpLeg  2.10503 4.16938 2.8778
LeftLeg  -0.0636585 7.08604 -3.19396
LeftFoot  -2.51516 0.00628369 0.126353
LeftToes  -2.63786e-011 -1.12672e-010 -2.07835e-011
165
root  -27.5632 41.4274 -35.7564 -178.195 2.98033 178.912
RightUpLeg  1.12775 -6.80549 -4.0896
RightLeg  2.63426 2.2516 2.85338
RightFoot  -2.60327 0.19356 -2.78387
RightToes  1.74622e-010 0 -3.6325e-017
Spine  -2.57852 -0.175243 2.07991
Spine1  3.06866 0.166865 -2.00803
HEad  -6.62662 3.31656 -0.549041
LeftShoulder1  0.204156 1.88982 -4.48034
LeftArm  -12.1402 8.36945 -1.66874
LeftForeArm  13.5443 -2.80845 -3.91036
LeftHand  -0.244104 0.0205437 5.32207
RightShoulder  0.161238 -2.01707 2.7546
RightArm  -15.6501 -1.30383 0.132996
RightForeArm  3.72233 0.373569 4.22838
RightHand  -0.730358 2.33894 -11.1491
LeftUpLeg  1.96392 4.1831 2.93535
LeftLeg  0.0571664 6.90295 -3.15292
LeftFoot  -2.62762 0.00863523 0.0898089
LeftToes  -2.63786e-011 -1.12672e-010 -2.07835e-011
166
root  -27.5536 41.4243 -35.7819 -178.117 2.83993 178.913
RightUpLeg  1.11855 -6.77228 -4.05587
RightLeg  2.60852 2.06346 2.83244
RightFoot  -2.66305 0.190165 -2.74375
RightToes  1.74622e-010 0 -3.6325e-017
Spine  -2.43095 -0.189781 1.95939
Spine1  2.88693 0.158183 -2.01216
HEad  -6.69278 3.49336 -0.598111
LeftShoulder1  0.227225 1.72304 -4.63481
LeftArm  -12.3162 8.60695 -1.65596
LeftForeArm  13.2137 -3.05544 -3.84683
LeftHand  -0.244104 0.0205437 5.32207
RightShoulder  0.169508 -1.97166 2.99879
RightArm  -15.8418 -1.54818 0.151193
RightForeArm  4.04704 0.408872 4.11689
RightHand  -0.743225 2.39857 -11.2587
LeftUpLeg  1.87021 4.15044 2.93354
LeftLeg  0.120842 6.79911 -3.10768
LeftFoot  -2.67971 0.0118893 0.0392384
LeftToes  -2.63786e-011 -1.12672e-010 -2.07835e-011
